<svg width="54" height="54" viewBox="0 0 54 54" fill="none" xmlns="http://www.w3.org/2000/svg">
<path d="M27.2999 28.95C27.1249 28.925 26.8999 28.925 26.6999 28.95C22.2999 28.8 18.7998 25.2 18.7998 20.775C18.7998 16.25 22.4499 12.575 26.9999 12.575C31.5249 12.575 35.1999 16.25 35.1999 20.775C35.1749 25.2 31.6999 28.8 27.2999 28.95Z" stroke="#692EFF" stroke-width="3.75" stroke-linecap="round" stroke-linejoin="round"/>
<path d="M43.8499 45.4503C39.3999 49.5253 33.4999 52.0003 26.9999 52.0003C20.4999 52.0003 14.5999 49.5253 10.1499 45.4503C10.3999 43.1003 11.8999 40.8003 14.5749 39.0003C21.4249 34.4503 32.6249 34.4503 39.4249 39.0003C42.0999 40.8003 43.5999 43.1003 43.8499 45.4503Z" stroke="#692EFF" stroke-width="3.75" stroke-linecap="round" stroke-linejoin="round"/>
<path d="M27 52C40.807 52 52 40.807 52 27C52 13.1929 40.807 2 27 2C13.1929 2 2 13.1929 2 27C2 40.807 13.1929 52 27 52Z" stroke="#692EFF" stroke-width="3.75" stroke-linecap="round" stroke-linejoin="round"/>
</svg>
